<?xml version="1.0" encoding="UTF-8"?>
<svg version="1.1" xmlns="http://www.w3.org/2000/svg" width="148" height="148">
<path d="M0 0 C48.84 0 97.68 0 148 0 C148 48.84 148 97.68 148 148 C99.16 148 50.32 148 0 148 C0 99.16 0 50.32 0 0 Z " fill="#E5E5E5" transform="translate(0,0)"/>
<path d="M0 0 C0.4021875 1.46179688 0.4021875 1.46179688 0.8125 2.953125 C1.20803709 4.3854985 1.60390341 5.81778112 2 7.25 C2.21857666 8.04067871 2.43715332 8.83135742 2.66235352 9.64599609 C4.04748601 14.63436083 5.46154678 19.61335186 6.90234375 24.5859375 C10.26166045 36.1877433 13.56154447 47.79959485 16.5625 59.5 C16.95779907 61.00361084 16.95779907 61.00361084 17.36108398 62.53759766 C17.71021851 63.92664307 17.71021851 63.92664307 18.06640625 65.34375 C18.3749353 66.55321289 18.3749353 66.55321289 18.68969727 67.78710938 C19.5797128 74.13415959 15.29300461 80.44556543 11.6640625 85.3671875 C5.6117488 92.24086178 -3.92588276 93.34796073 -12.48681641 95.21533203 C-17.36977736 96.30593915 -22.19557547 97.58997757 -27.03295898 98.86547852 C-30.25622887 99.71241383 -33.48312741 100.54246486 -36.71339417 101.36222839 C-43.27584605 103.02766463 -49.82213982 104.74596808 -56.359375 106.5078125 C-57.13552155 106.71630829 -57.91166809 106.92480408 -58.71133423 107.13961792 C-63.28965789 108.36934829 -63.28965789 108.36934829 -67.86468506 109.61126709 C-69.96304604 110.18380352 -72.06331392 110.74879817 -74.1640625 111.3125 C-75.36498535 111.63863281 -76.5659082 111.96476562 -77.80322266 112.30078125 C-80.66886947 112.9275731 -83.0837182 113.14839031 -86 113 C-91.48844404 94.84007916 -96.46324461 76.52589056 -100.953125 58.09375 C-101.77395755 54.80371912 -102.68377433 51.54329764 -103.609375 48.28125 C-104.03077759 46.78513184 -104.03077759 46.78513184 -104.46069336 45.25878906 C-105.01818639 43.28958754 -105.58379588 41.32266137 -106.15844727 39.35839844 C-106.41166748 38.4615332 -106.6648877 37.56466797 -106.92578125 36.640625 C-107.15692627 35.84172852 -107.38807129 35.04283203 -107.6262207 34.21972656 C-108.03198797 31.81003618 -107.76279535 30.29987889 -107 28 C-87.1906143 22.53696524 -67.345833 17.22566717 -47.46142578 12.04248047 C-39.21177669 9.89146634 -30.96462475 7.73313305 -22.73046875 5.5234375 C-21.66394829 5.23742424 -21.66394829 5.23742424 -20.57588196 4.94563293 C-17.2850112 4.06238921 -13.995127 3.17574664 -10.70629883 2.28491211 C-9.01089966 1.82870483 -9.01089966 1.82870483 -7.28125 1.36328125 C-6.30220703 1.09813721 -5.32316406 0.83299316 -4.31445312 0.55981445 C-2 0 -2 0 0 0 Z " fill="#F5CDDF" transform="translate(119,29)"/>
<path d="M0 0 C26.07 0 52.14 0 79 0 C77.68 1.65 76.36 3.3 75 5 C74.73053896 8.13507257 74.73053896 8.13507257 75.25 11.3125 C75.37890625 12.38113281 75.5078125 13.44976562 75.640625 14.55078125 C75.75921875 15.35902344 75.8778125 16.16726562 76 17 C75.34 17.33 74.68 17.66 74 18 C74.99 18 75.98 18 77 18 C76.97679688 18.66386719 76.95359375 19.32773437 76.9296875 20.01171875 C76.50658338 26.89933151 76.50658338 26.89933151 79 33 C81.92622876 34.3160005 84.89333397 35.21374502 88 36 C87.505 36.99 87.505 36.99 87 38 C84.58091902 38.79514768 82.21042288 39.4710889 79.74609375 40.09375 C78.64467796 40.38203674 78.64467796 40.38203674 77.52101135 40.67614746 C75.16174325 41.29170788 72.79973228 41.89592595 70.4375 42.5 C68.87155417 42.90681904 67.30579639 43.31436265 65.74023438 43.72265625 C62.1664754 44.65224742 58.59196313 45.57849513 55.01242065 46.4855957 C53.62354482 46.84061278 52.23686036 47.2042759 50.8520813 47.57495117 C47.41564091 48.47880491 44.58080496 49 41 49 C41 47 41 47 42.9375 45 C43.618125 44.34 44.29875 43.68 45 43 C46.43304064 40.13391871 46.30644155 38.18699217 46 35 C44.07706482 31.78170896 44.07706482 31.78170896 42 29 C42 28.34 42 27.68 42 27 C42.66 26.67 43.32 26.34 44 26 C43.01 25.67 42.02 25.34 41 25 C40.05078125 22.71484375 40.05078125 22.71484375 39.3125 19.9375 C39.06113281 19.01839844 38.80976562 18.09929688 38.55078125 17.15234375 C38.36902344 16.44207031 38.18726563 15.73179688 38 15 C32.32613198 13.74812645 32.32613198 13.74812645 27 15.5 C24.31279077 18.85901154 24.55643802 20.78616121 25 25 C25.32089003 26.66910709 25.65186317 28.33636253 26 30 C22.04293896 31.17101244 18.08415032 32.33607272 14.125 33.5 C12.99707031 33.83386719 11.86914062 34.16773438 10.70703125 34.51171875 C9.63066406 34.82753906 8.55429688 35.14335938 7.4453125 35.46875 C6.45031738 35.76201172 5.45532227 36.05527344 4.43017578 36.35742188 C2 37 2 37 0 37 C0 24.79 0 12.58 0 0 Z " fill="#FEFEFE" transform="translate(0,0)"/>
<path d="M0 0 C20.79 0 41.58 0 63 0 C63 38.61 63 77.22 63 117 C61.56517081 114.13034162 60.63431899 112.06035576 59.84594727 109.06567383 C59.64094604 108.29585678 59.43594482 107.52603973 59.22473145 106.7328949 C59.00748413 105.89935989 58.79023682 105.06582489 58.56640625 104.20703125 C58.33264282 103.32479385 58.09887939 102.44255646 57.85803223 101.53358459 C57.08889467 98.62758679 56.3257557 95.72004764 55.5625 92.8125 C55.02775378 90.78844433 54.49251007 88.76452003 53.95678711 86.74072266 C53.12994913 83.61691722 52.30343987 80.49302883 51.47853088 77.36871338 C48.70415606 66.86246346 45.88597824 56.36813996 43.0625 45.875 C41.37001351 39.58466012 39.68198325 33.29315652 38 27 C37.76754578 26.13234009 37.53509155 25.26468018 37.29559326 24.37072754 C36.58892156 21.72962646 35.88580353 19.08760299 35.18359375 16.4453125 C34.96461929 15.62860077 34.74564484 14.81188904 34.52003479 13.97042847 C33 8.22891073 33 8.22891073 33 6 C32.32420898 6.18175781 31.64841797 6.36351562 30.95214844 6.55078125 C27.8861148 7.37232238 24.81810675 8.18623692 21.75 9 C20.68652344 9.28617188 19.62304688 9.57234375 18.52734375 9.8671875 C17.50253906 10.13789063 16.47773437 10.40859375 15.421875 10.6875 C14.47924805 10.93886719 13.53662109 11.19023437 12.56542969 11.44921875 C10 12 10 12 6 12 C5.81824219 11.38511719 5.63648437 10.77023437 5.44921875 10.13671875 C5.07216797 8.92435547 5.07216797 8.92435547 4.6875 7.6875 C4.32205078 6.48673828 4.32205078 6.48673828 3.94921875 5.26171875 C3.0154267 2.63705695 3.0154267 2.63705695 0 0 Z " fill="#FEFEFE" transform="translate(85,0)"/>
<path d="M0 0 C0.86627405 2.91355841 1.71831006 5.83004328 2.5625 8.75 C2.9327832 9.9875 2.9327832 9.9875 3.31054688 11.25 C3.53935547 12.04921875 3.76816406 12.8484375 4.00390625 13.671875 C4.21861572 14.4050293 4.4333252 15.13818359 4.65454102 15.89355469 C5.03914672 18.23869816 4.72878764 19.75825808 4 22 C4 21.34 4 20.68 4 20 C3.34 20 2.68 20 2 20 C1.67 18.35 1.34 16.7 1 15 C0.08863281 15.30292969 -0.82273437 15.60585938 -1.76171875 15.91796875 C-9.39938696 18.40628611 -17.04722146 20.56818688 -24.875 22.375 C-33.29491002 24.31993844 -41.65400046 26.44600298 -50 28.6875 C-51.11616699 28.9851123 -52.23233398 29.28272461 -53.38232422 29.58935547 C-54.43178223 29.87311035 -55.48124023 30.15686523 -56.5625 30.44921875 C-57.95662109 30.82566528 -57.95662109 30.82566528 -59.37890625 31.2097168 C-62.01450502 31.96194289 -62.01450502 31.96194289 -64.54638672 33.02294922 C-66.92539071 33.97028991 -69.20235604 34.61123391 -71.6953125 35.18359375 C-72.5713916 35.38766846 -73.4474707 35.59174316 -74.35009766 35.80200195 C-75.26581543 36.01171631 -76.1815332 36.22143066 -77.125 36.4375 C-83.80778138 37.99191564 -90.45217437 39.59036175 -97.0390625 41.51953125 C-99 42 -99 42 -102 42 C-101.67 45.96 -101.34 49.92 -101 54 C-103.6268119 50.05978214 -104.49573542 46.10886119 -105.6875 41.5625 C-105.92533203 40.70333984 -106.16316406 39.84417969 -106.40820312 38.95898438 C-106.62798828 38.12818359 -106.84777344 37.29738281 -107.07421875 36.44140625 C-107.27619873 35.68545166 -107.47817871 34.92949707 -107.6862793 34.15063477 C-108.02954029 31.79749384 -107.72719845 30.24524509 -107 28 C-87.1906143 22.53696524 -67.345833 17.22566717 -47.46142578 12.04248047 C-39.21177669 9.89146634 -30.96462475 7.73313305 -22.73046875 5.5234375 C-21.66394829 5.23742424 -21.66394829 5.23742424 -20.57588196 4.94563293 C-17.2850112 4.06238921 -13.995127 3.17574664 -10.70629883 2.28491211 C-9.01089966 1.82870483 -9.01089966 1.82870483 -7.28125 1.36328125 C-6.30220703 1.09813721 -5.32316406 0.83299316 -4.31445312 0.55981445 C-2 0 -2 0 0 0 Z " fill="#DEBACA" transform="translate(119,29)"/>
<path d="M0 0 C1.42935497 2.85870994 2.37712835 4.96898587 3.18579102 7.95361328 C3.39717209 8.72574661 3.60855316 9.49787994 3.82633972 10.29341125 C4.04993668 11.12728867 4.27353363 11.96116608 4.50390625 12.8203125 C4.7430928 13.69926682 4.98227936 14.57822113 5.22871399 15.48381042 C6.01091896 18.3630669 6.78685733 21.24396941 7.5625 24.125 C8.10343033 26.12270716 8.64461084 28.12034659 9.18603516 30.11791992 C13.52821746 46.16073449 17.80737512 62.22014455 22.02587891 78.29589844 C22.97354155 81.89939159 23.92908756 85.50070736 24.88671875 89.1015625 C25.44546912 91.21350024 26.00407354 93.32547659 26.5625 95.4375 C26.81435059 96.37956299 27.06620117 97.32162598 27.32568359 98.29223633 C27.54949707 99.14325928 27.77331055 99.99428223 28.00390625 100.87109375 C28.29503296 101.96828735 28.29503296 101.96828735 28.59204102 103.08764648 C29 105 29 105 29 108 C19.43 108 9.86 108 0 108 C0 72.36 0 36.72 0 0 Z " fill="#FEFEFE" transform="translate(0,40)"/>
<path d="M0 0 C0 9.24 0 18.48 0 28 C-33.99 28 -67.98 28 -103 28 C-100.01175075 26.50587537 -97.75742396 25.55050377 -94.61572266 24.70654297 C-93.75079697 24.47196381 -92.88587128 24.23738464 -91.99473572 23.99569702 C-91.06061356 23.74703888 -90.12649139 23.49838074 -89.1640625 23.2421875 C-88.18502457 22.97798004 -87.20598663 22.71377258 -86.19728088 22.44155884 C-83.00761664 21.58190491 -79.81635092 20.72836893 -76.625 19.875 C-74.43000276 19.28484594 -72.23509746 18.69434984 -70.0402832 18.10351562 C-64.6588965 16.65607568 -59.27617025 15.21370219 -53.89276123 13.77380371 C-51.29696044 13.0794359 -48.70139197 12.38421038 -46.10595703 11.68847656 C-38.76060178 9.71988799 -31.41288297 7.76040761 -24.06201172 5.8125 C-21.05213777 5.01383467 -18.04354291 4.21049706 -15.03515625 3.40625 C-13.27347768 2.93734902 -11.5117619 2.46858781 -9.75 2 C-8.58633911 1.68772461 -8.58633911 1.68772461 -7.39916992 1.36914062 C-2.22826206 0 -2.22826206 0 0 0 Z " fill="#FEFEFE" transform="translate(148,120)"/>
<path d="M0 0 C-0.02320313 0.66386719 -0.04640625 1.32773437 -0.0703125 2.01171875 C-0.49341662 8.89933151 -0.49341662 8.89933151 2 15 C4.92622876 16.3160005 7.89333397 17.21374502 11 18 C10.67 18.66 10.34 19.32 10 20 C7.58091902 20.79514768 5.21042288 21.4710889 2.74609375 22.09375 C1.64467796 22.38203674 1.64467796 22.38203674 0.52101135 22.67614746 C-1.83825675 23.29170788 -4.20026772 23.89592595 -6.5625 24.5 C-8.12844583 24.90681904 -9.69420361 25.31436265 -11.25976562 25.72265625 C-14.8335246 26.65224742 -18.40803687 27.57849513 -21.98757935 28.4855957 C-23.37645518 28.84061278 -24.76313964 29.2042759 -26.1479187 29.57495117 C-29.58435909 30.47880491 -32.41919504 31 -36 31 C-36 29 -36 29 -34.0625 27 C-33.381875 26.34 -32.70125 25.68 -32 25 C-30.56695936 22.13391871 -30.69355845 20.18699217 -31 17 C-32.92293518 13.78170896 -32.92293518 13.78170896 -35 11 C-35 10.34 -35 9.68 -35 9 C-33.35 8.67 -31.7 8.34 -30 8 C-30 7.34 -30 6.68 -30 6 C-26.69342496 4.97966991 -23.37898264 3.98760449 -20.0625 3 C-19.13630859 2.71382812 -18.21011719 2.42765625 -17.25585938 2.1328125 C-11.2832347 0.37245997 -6.22492233 -0.30645771 0 0 Z " fill="#F7F7F7" transform="translate(77,18)"/>
<path d="M0 0 C4.10085314 0.8543444 5.51240343 2.28451318 8 5.625 C8.40146415 7.94758091 8.74334547 10.28199253 9 12.625 C9.67579102 12.44324219 10.35158203 12.26148438 11.04785156 12.07421875 C14.1138852 11.25267762 17.18189325 10.43876308 20.25 9.625 C21.31347656 9.33882812 22.37695312 9.05265625 23.47265625 8.7578125 C24.49746094 8.48710937 25.52226563 8.21640625 26.578125 7.9375 C27.99206543 7.56044922 27.99206543 7.56044922 29.43457031 7.17578125 C32 6.625 32 6.625 36 6.625 C35.67 7.285 35.34 7.945 35 8.625 C32.28855058 9.38444316 29.62390445 10.03660574 26.875 10.625 C25.37203211 10.95668947 23.86942249 11.29000683 22.3671875 11.625 C21.63725586 11.78742187 20.90732422 11.94984375 20.15527344 12.1171875 C17.06832227 12.84451628 14.03982772 13.72192121 11 14.625 C12.20381448 17.11861571 13.45428722 19.30643083 15 21.625 C15.45971784 26.58995273 15.15065843 29.68667696 12 33.625 C8.58071806 36.18946145 5.1498078 35.92141484 1 35.625 C-1.79407034 34.77125629 -2.84758143 33.79318601 -4.8125 31.625 C-6.56699413 27.19259378 -5.74553157 23.25088867 -5 18.625 C-7.31 18.955 -9.62 19.285 -12 19.625 C-9 17.625 -9 17.625 -6 17.625 C-6.33 16.75875 -6.66 15.8925 -7 15 C-8.03246149 11.51544246 -8.53528072 9.21902767 -8 5.625 C-5.54405875 2.30225596 -4.0743356 0.84881992 0 0 Z " fill="#DADADA" transform="translate(82,-0.625)"/>
<path d="M0 0 C3.34830284 1.23741627 4.80452223 2.14849425 6.875 5.0625 C7.625 8.8125 7.625 8.8125 7.875 12.0625 C9.855 12.0625 11.835 12.0625 13.875 12.0625 C10.875 14.0625 10.875 14.0625 8.875 14.0625 C9.41640625 14.82433594 9.41640625 14.82433594 9.96875 15.6015625 C12.13915423 18.82099544 13.74322292 21.3304051 14.4375 25.1875 C13.71529898 28.87874968 12.19319018 31.13067124 9.875 34.0625 C6.41760443 35.79119779 2.65524432 35.55216895 -1.125 35.0625 C-3.99529869 33.26856332 -5.61631638 32.07986724 -7.125 29.0625 C-7.19496014 27.35547265 -7.20940154 25.64581997 -7.1875 23.9375 C-7.17847656 23.02742188 -7.16945313 22.11734375 -7.16015625 21.1796875 C-7.14855469 20.48101562 -7.13695312 19.78234375 -7.125 19.0625 C-7.94484375 19.29066406 -8.7646875 19.51882812 -9.609375 19.75390625 C-10.68703125 20.04136719 -11.7646875 20.32882813 -12.875 20.625 C-13.94234375 20.91503906 -15.0096875 21.20507812 -16.109375 21.50390625 C-18.96835927 22.03348494 -20.44097383 22.04620862 -23.125 21.0625 C-21.62646484 20.64677734 -21.62646484 20.64677734 -20.09765625 20.22265625 C-18.79422209 19.85694451 -17.49083931 19.49104962 -16.1875 19.125 C-15.52814453 18.94259766 -14.86878906 18.76019531 -14.18945312 18.57226562 C-10.88678827 17.83653899 -10.88678827 17.83653899 -8.125 16.0625 C-8.3415625 15.258125 -8.3415625 15.258125 -8.5625 14.4375 C-9.35709722 11.08253395 -9.54763683 8.50397131 -9.125 5.0625 C-6.17069028 1.68614603 -4.55909952 0.09118199 0 0 Z " fill="#D4D4D4" transform="translate(33.125,12.9375)"/>
<path d="M0 0 C3.34155992 2.75678693 4.87593546 4.13154822 5.5 8.5 C4.97378505 12.18350462 4.3124305 14.10946187 2 17 C-1.41928194 19.56446145 -4.8501922 19.29641484 -9 19 C-11.79407034 18.14625629 -12.84758143 17.16818601 -14.8125 15 C-16.56699413 10.56759378 -15.74553157 6.62588867 -15 2 C-13 5 -13 5 -12 7.5625 C-11.13157247 10.12563162 -11.13157247 10.12563162 -9 12 C-4.65805064 11.90304884 -4.65805064 11.90304884 -1 10 C-0.76712992 8.31816052 -0.58735834 6.6287584 -0.4375 4.9375 C-0.35371094 4.01839844 -0.26992187 3.09929688 -0.18359375 2.15234375 C-0.12300781 1.44207031 -0.06242187 0.73179688 0 0 Z " fill="#D4D4D4" transform="translate(92,16)"/>
<path d="M0 0 C3.14357035 3.14357035 3.58999786 7.14758437 4.6875 11.375 C4.92533203 12.23867187 5.16316406 13.10234375 5.40820312 13.9921875 C5.62798828 14.8275 5.84777344 15.6628125 6.07421875 16.5234375 C6.27619873 17.28575684 6.47817871 18.04807617 6.6862793 18.83349609 C7.2655979 22.83417567 5.93113361 25.41757596 3.71484375 28.671875 C3.26689453 29.33574219 2.81894531 29.99960938 2.35742188 30.68359375 C1.65456055 31.70646484 1.65456055 31.70646484 0.9375 32.75 C0.46505859 33.44738281 -0.00738281 34.14476562 -0.49414062 34.86328125 C-1.65757281 36.57904993 -2.82809974 38.29000398 -4 40 C-4.66 39.67 -5.32 39.34 -6 39 C-6.6328125 37.07421875 -6.6328125 37.07421875 -7.125 34.6875 C-7.29257813 33.90761719 -7.46015625 33.12773438 -7.6328125 32.32421875 C-8 30 -8 30 -8 26 C-7.01 25.67 -6.02 25.34 -5 25 C-4.030625 24.649375 -3.06125 24.29875 -2.0625 23.9375 C1 23 1 23 5 23 C4.84853516 22.44538086 4.69707031 21.89076172 4.54101562 21.31933594 C3.85547596 18.79760466 3.17766852 16.27385734 2.5 13.75 C2.26152344 12.87730469 2.02304688 12.00460938 1.77734375 11.10546875 C1.55175781 10.26113281 1.32617188 9.41679688 1.09375 8.546875 C0.88427734 7.77182617 0.67480469 6.99677734 0.45898438 6.19824219 C0 4 0 4 0 0 Z " fill="#C1BFC0" transform="translate(131,78)"/>
<path d="M0 0 C0.33 0 0.66 0 1 0 C1.77303488 8.03956273 1.77303488 8.03956273 -1.0625 11.5625 C-4.74543837 13.36478899 -6.94295625 13.57957768 -11 13 C-13.875 11.4375 -13.875 11.4375 -16 9 C-16.8125 5.25 -16.8125 5.25 -17 2 C-16.01 3.485 -16.01 3.485 -15 5 C-13.17362379 7.37428907 -12.00612118 7.99787089 -9.125 9 C-5.81727958 9.31976074 -5.81727958 9.31976074 -3.1875 6.8125 C-1.26041673 4.33482151 -0.33906323 3.05156911 0 0 Z " fill="#F7F7F7" transform="translate(44,34)"/>
<path d="M0 0 C0.99 0.495 0.99 0.495 2 1 C2.40729228 3.32156597 2.74438677 5.6568787 3 8 C4.98 8 6.96 8 9 8 C6 10 6 10 4 10 C4.3609375 10.50789063 4.721875 11.01578125 5.09375 11.5390625 C7.94222845 15.76430554 9.8809593 18.71424419 9 24 C8.34 24.66 7.68 25.32 7 26 C6.67 24.35 6.34 22.7 6 21 C5.01 21.99 4.02 22.98 3 24 C3.03480469 23.40574219 3.06960937 22.81148437 3.10546875 22.19921875 C3.30287311 16.1548854 2.4497362 11.11836416 0.65625 5.34765625 C0 3 0 3 0 0 Z " fill="#777777" transform="translate(38,17)"/>
<path d="M0 0 C3.14357035 3.14357035 3.58999786 7.14758437 4.6875 11.375 C4.92533203 12.23867187 5.16316406 13.10234375 5.40820312 13.9921875 C5.62798828 14.8275 5.84777344 15.6628125 6.07421875 16.5234375 C6.27619873 17.28575684 6.47817871 18.04807617 6.6862793 18.83349609 C7 21 7 21 6 25 C2.37 25.33 -1.26 25.66 -5 26 C-1.99382731 22.99382731 0.82381598 23.40414684 5 23 C4.84853516 22.44538086 4.69707031 21.89076172 4.54101562 21.31933594 C3.85547596 18.79760466 3.17766852 16.27385734 2.5 13.75 C2.26152344 12.87730469 2.02304688 12.00460938 1.77734375 11.10546875 C1.55175781 10.26113281 1.32617188 9.41679688 1.09375 8.546875 C0.88427734 7.77182617 0.67480469 6.99677734 0.45898438 6.19824219 C0 4 0 4 0 0 Z " fill="#6C6267" transform="translate(131,78)"/>
<path d="M0 0 C3.4113289 2.81434635 4.88422065 4.16059974 5.5 8.625 C5 12 5 12 2 15 C2.33 12.03 2.66 9.06 3 6 C2.3503125 7.423125 2.3503125 7.423125 1.6875 8.875 C0 12 0 12 -3 14 C-6.1875 14.125 -6.1875 14.125 -9 14 C-9 13.67 -9 13.34 -9 13 C-7.865625 12.690625 -6.73125 12.38125 -5.5625 12.0625 C-2.21224901 11.37075469 -2.21224901 11.37075469 -1 10 C-0.76712992 8.31816052 -0.58735834 6.6287584 -0.4375 4.9375 C-0.35371094 4.01839844 -0.26992187 3.09929688 -0.18359375 2.15234375 C-0.12300781 1.44207031 -0.06242187 0.73179688 0 0 Z " fill="#686868" transform="translate(92,16)"/>
<path d="M0 0 C0.86627405 2.91355841 1.71831006 5.83004328 2.5625 8.75 C2.80935547 9.575 3.05621094 10.4 3.31054688 11.25 C3.53935547 12.04921875 3.76816406 12.8484375 4.00390625 13.671875 C4.21861572 14.4050293 4.4333252 15.13818359 4.65454102 15.89355469 C5.03914672 18.23869816 4.72878764 19.75825808 4 22 C4 21.34 4 20.68 4 20 C3.34 20 2.68 20 2 20 C1 14 0 8 -1 2 C-3.64 2.33 -6.28 2.66 -9 3 C-5.87496336 0.91664224 -3.72863529 0 0 0 Z " fill="#7B6D74" transform="translate(119,29)"/>
<path d="M0 0 C1.78879048 2.68318573 2.81376932 5.03442329 4 8 C4.99 9.485 4.99 9.485 6 11 C4.68 10.34 3.36 9.68 2 9 C1.67 10.32 1.34 11.64 1 13 C-1.30143236 9.54785147 -1.13833854 8.76520676 -0.625 4.8125 C-0.51414062 3.91144531 -0.40328125 3.01039062 -0.2890625 2.08203125 C-0.19367188 1.39496094 -0.09828125 0.70789063 0 0 Z " fill="#6B6B6B" transform="translate(77,18)"/>
</svg>
